<svg height="128" viewBox="0 0 1024 1024" width="128" xmlns="http://www.w3.org/2000/svg"><path d="m967.054219 745.334598q-1.482549 2.897165-2.997067 5.76336c-.3067.579433-.620393 1.155869-.929091 1.734303q-1.059963 1.987055-2.130914 3.96512c-.389619.7153-.786231 1.427603-1.179846 2.140905q-.97105 1.762275-1.95109 3.518556c-.428581.764252-.863155 1.524508-1.298729 2.285763q-.949071 1.671364-1.907134 3.336735-.677337 1.171853-1.363666 2.338711-.951069 1.625409-1.913127 3.245824-.699316 1.176848-1.406624 2.347702-.967054 1.605429-1.945096 3.202866-.712303 1.16486-1.431599 2.325724-.994027 1.598436-1.998045 3.196871-.718297 1.137886-1.438592 2.273775-1.032989 1.619415-2.078966 3.230838-.708307 1.098925-1.420609 2.185861-1.091931 1.669366-2.197849 3.327744c-.452557.679335-.89912 1.359669-1.357672 2.037006q-1.198827 1.785253-2.422629 3.557519c-.399609.584428-.799218 1.172852-1.198827 1.755282q-1.467564 2.120924-2.957106 4.223866c-.24476.345662-.485525.694321-.730285 1.039983q-3.769311 5.304809-7.668496 10.509715c-.310696.414594-.626387.825192-.938082 1.237788q-1.473558 1.954088-2.960103 3.896187c-.412596.536475-.830188 1.068954-1.245781 1.60443q-1.354674 1.74729-2.721336 3.485589c-.458551.581431-.921099 1.158866-1.382647 1.738299q-1.321707 1.660375-2.653404 3.309761-.723292.893126-1.452578 1.781257-1.323705 1.618416-2.658399 3.22884-.737278.887132-1.479552 1.770267-1.346682 1.609425-2.709348 3.205863-.734281.862156-1.472559 1.720317-1.398631 1.623411-2.807253 3.234834c-.473537.54147-.948072 1.084938-1.424606 1.62441q-1.474557 1.672363-2.966097 3.330741c-.43957.489521-.877142.980041-1.31771 1.467564q-1.611423 1.77826-3.237832 3.541534l-1.098924 1.198826q-1.879161 2.024019-3.780301 4.029058c-.205799.215789-.407601.434575-.6134.650363q-6.807338 7.157995-13.88641 14.053247l-.365642.352655q-2.13591 2.074969-4.295796 4.126961c-.279726.26574-.56245.529482-.843175.799218q-1.934107 1.828211-3.885198 3.637441c-.351656.325681-.70531.648365-1.057965.973047q-1.863177 1.715321-3.742337 3.414659-.575437.518493-1.152872 1.034987-1.855184 1.66537-3.726353 3.312758l-1.171854 1.026995q-1.893147 1.654381-3.796284 3.28978l-1.122902.96106q-1.974068 1.682354-3.96412 3.344727c-.330676.27573-.660354.553458-.992029.828189q-2.119925 1.762275-4.26183 3.496578l-.73528.599414q-2.397654 1.939102-4.812291 3.850232l-.226778.180823q-13.041238 10.28993-26.754817 19.745676l-.157845.107895q-2.613442 1.79824-5.251861 3.567508l-.470539.313693q-2.497556 1.671364-5.014093 3.312759l-.606407.393614q-2.473579 1.608426-4.967139 3.18888l-.621392.392615q-2.521532 1.592442-5.064044 3.15791l-.525486.323683q-2.64641 1.62441-5.3138 3.217851l-.291714.174829a509.961939 509.961939 0 0 1 -53.520624 27.772821l-.105896.047953q-3.023042 1.345683-6.064066 2.654402l-.139863.048952a508.129733 508.129733 0 0 1 -70.640869 24.376145 514.996013 514.996013 0 0 1 -262.331277 0 508.278587 508.278587 0 0 1 -120.742838-49.251801 513.266705 513.266705 0 0 1 -102.973228-76.909734l-.041959-.039961q-2.286762-2.205841-4.547549-4.438656l-.059942-.059941q-2.259789-2.232815-4.4956-4.495601l-.041959-.041959a513.614365 513.614365 0 0 1 -74.797801-96.422639l-.034966-.058942q-1.641394-2.734324-3.248821-5.494623l-.048952-.083918q-1.606428-2.757302-3.179888-5.534583l-.036964-.064937q-1.586447-2.802258-3.138928-5.626494a509.192692 509.192692 0 0 1 -62.940405-245.992266c0-282.493545 229.00589-511.499435 511.499435-511.499435s511.499435 229.00589 511.499435 511.499435a509.347541 509.347541 0 0 1 -55.945251 232.836141zm-455.554184-684.159465c-249.256072 0-451.323325 202.067252-451.323325 451.323324a450.331295 450.331295 0 0 0 28.230373 157.398966c63.385969 82.818951 193.264867 142.760291 346.27313 151.238994a305.600932 305.600932 0 0 0 35.360395 2.057986q12.860415 0 25.399144-1.051971 2.529525.052948 5.071037.052949c134.625253 0 243.761449-109.136197 243.76145-243.76145a243.019176 243.019176 0 0 0 -77.34331-178.050755 150.570648 150.570648 0 0 0 -27.853742-23.711795 146.209916 146.209916 0 0 0 -18.304087-10.26995c-.578434-.327679-1.143881-.67434-1.724313-.999022 0 .062938.006993.126876.010989.190813-49.60046-22.540941-102.487703-11.633615-124.794872 28.647964-16.284064 29.410218-12.287975 67.305134 7.133019 100.213929-.799218.014985-1.58345.059941-2.381669.059941a120.3732 120.3732 0 0 1 -88.813086-201.634675c-.00999-.13287-.014985-.267738-.024975-.399609.799218-.712303 1.611423-1.405624 2.416635-2.108937a120.81277 120.81277 0 0 1 24.979554-19.758663 316.654115 316.654115 0 0 1 184.319621-58.820437c2.254793 0 4.495601.038962 6.7434.084917 2.2478-.044956 4.488607-.084917 6.743401-.084917 171.931744 0 313.006684 132.020801 327.437562 300.214203-.26574-249.032291-202.2221-450.831805-451.316331-450.831805z" fill="#fff"/></svg>